<svg xmlns="http://www.w3.org/2000/svg" width="23.484" height="15.852" viewBox="0 0 23.484 15.852">
  <path id="Icon_zocial-email" data-name="Icon zocial-email" d="M.072,18.516V5.472q0-.023.068-.43l7.677,6.567L.163,18.969a1.919,1.919,0,0,1-.091-.453ZM1.091,4.136a.976.976,0,0,1,.385-.068H22.152a1.282,1.282,0,0,1,.408.068l-7.7,6.59-1.019.815-2.016,1.653L9.81,11.541l-1.019-.815Zm.023,15.716,7.722-7.405,2.989,2.423,2.989-2.423,7.722,7.405a1.087,1.087,0,0,1-.385.068H1.476a1.026,1.026,0,0,1-.362-.068Zm14.72-8.243,7.654-6.567a1.352,1.352,0,0,1,.068.43V18.516a1.736,1.736,0,0,1-.068.453Z" transform="translate(-0.072 -4.068)"/>
</svg>
