<svg xmlns="http://www.w3.org/2000/svg" width="21.997" height="21.997" viewBox="0 0 21.997 21.997">
  <path id="Icon_awesome-phone-alt" data-name="Icon awesome-phone-alt" d="M21.37,15.544l-4.812-2.062a1.031,1.031,0,0,0-1.2.3l-2.131,2.6A15.925,15.925,0,0,1,5.611,8.769l2.6-2.131a1.029,1.029,0,0,0,.3-1.2L6.449.624a1.038,1.038,0,0,0-1.181-.6L.8,1.058a1.031,1.031,0,0,0-.8,1A19.933,19.933,0,0,0,19.935,22a1.031,1.031,0,0,0,1.005-.8l1.031-4.468a1.044,1.044,0,0,0-.6-1.186Z" transform="translate(0 0)"/>
</svg>
