<svg xmlns="http://www.w3.org/2000/svg" width="21.239" height="21.235" viewBox="0 0 21.239 21.235">
  <path id="Icon_awesome-instagram" data-name="Icon awesome-instagram" d="M10.617,7.411a5.444,5.444,0,1,0,5.444,5.444A5.436,5.436,0,0,0,10.617,7.411Zm0,8.984a3.54,3.54,0,1,1,3.54-3.54A3.546,3.546,0,0,1,10.617,16.395Zm6.937-9.207a1.27,1.27,0,1,1-1.27-1.27A1.267,1.267,0,0,1,17.554,7.188ZM21.16,8.477a6.284,6.284,0,0,0-1.715-4.449A6.326,6.326,0,0,0,15,2.312c-1.753-.1-7.008-.1-8.761,0A6.316,6.316,0,0,0,1.785,4.023,6.3,6.3,0,0,0,.069,8.472c-.1,1.753-.1,7.008,0,8.761a6.284,6.284,0,0,0,1.715,4.449A6.334,6.334,0,0,0,6.234,23.4c1.753.1,7.008.1,8.761,0a6.284,6.284,0,0,0,4.449-1.715,6.326,6.326,0,0,0,1.715-4.449c.1-1.753.1-7,0-8.756ZM18.895,19.114a3.583,3.583,0,0,1-2.019,2.019c-1.4.554-4.715.426-6.259.426s-4.866.123-6.259-.426a3.583,3.583,0,0,1-2.019-2.019c-.554-1.4-.426-4.715-.426-6.259S1.789,7.989,2.339,6.6A3.583,3.583,0,0,1,4.358,4.577c1.4-.554,4.715-.426,6.259-.426s4.866-.123,6.259.426A3.583,3.583,0,0,1,18.895,6.6c.554,1.4.426,4.715.426,6.259S19.449,17.721,18.895,19.114Z" transform="translate(0.005 -2.238)"/>
</svg>
