<svg xmlns="http://www.w3.org/2000/svg" width="20.88" height="20.879" viewBox="0 0 20.88 20.879">
  <path id="Icon_awesome-linkedin-in" data-name="Icon awesome-linkedin-in" d="M4.674,20.88H.345V6.94H4.674ZM2.507,5.038A2.519,2.519,0,1,1,5.014,2.508,2.528,2.528,0,0,1,2.507,5.038ZM20.875,20.88h-4.32V14.094c0-1.617-.033-3.691-2.251-3.691-2.251,0-2.6,1.757-2.6,3.575v6.9H7.385V6.94h4.152v1.9H11.6a4.549,4.549,0,0,1,4.1-2.251c4.381,0,5.186,2.885,5.186,6.632V20.88Z" transform="translate(0 -0.001)"/>
</svg>
