<?xml version="1.0" standalone="no"?>
<!DOCTYPE svg PUBLIC "-//W3C//DTD SVG 20010904//EN"
 "http://www.w3.org/TR/2001/REC-SVG-20010904/DTD/svg10.dtd">
<svg version="1.0" xmlns="http://www.w3.org/2000/svg"
 width="342.000000pt" height="342.000000pt" viewBox="0 0 342.000000 342.000000"
 preserveAspectRatio="xMidYMid meet">
<metadata>
Created by potrace 1.14, written by Peter Selinger 2001-2017
</metadata>
<g transform="translate(0.000000,342.000000) scale(0.100000,-0.100000)"
fill="#000000" stroke="none">
<path d="M1647 3414 c-1 -1 -38 -4 -82 -8 -69 -5 -145 -17 -260 -40 -65 -14
-225 -71 -313 -112 -284 -132 -526 -341 -707 -609 -46 -68 -162 -295 -170
-332 -2 -10 -13 -45 -24 -78 -12 -32 -23 -68 -26 -80 -2 -11 -11 -47 -19 -80
-8 -33 -18 -87 -21 -120 -4 -33 -9 -69 -11 -80 -3 -11 -5 -81 -5 -155 -1 -138
2 -176 27 -325 10 -62 38 -163 71 -259 142 -411 469 -774 866 -961 114 -54
259 -106 336 -121 7 -1 34 -7 60 -13 25 -5 71 -13 101 -17 30 -3 64 -8 75 -10
27 -6 288 -5 350 1 42 4 123 19 220 40 163 35 387 135 550 245 250 169 457
410 583 680 85 184 122 312 157 545 7 47 7 318 1 355 -3 14 -7 46 -10 71 -19
162 -88 377 -174 544 -38 73 -153 249 -197 300 -43 50 -169 178 -206 209 -103
86 -233 173 -251 168 -5 -1 -8 3 -8 9 0 21 -304 152 -406 174 -10 2 -59 13
-109 24 -90 20 -200 32 -328 34 -38 1 -69 1 -70 1z m724 -351 c13 -16 12 -17
-3 -4 -10 7 -18 15 -18 17 0 8 8 3 21 -13z m-1536 -163 c3 -6 -1 -7 -9 -4 -18
7 -21 14 -7 14 6 0 13 -4 16 -10z"/>
</g>
</svg>
